<mxfile host="app.diagrams.net" modified="2021-06-21T14:34:52.813Z" agent="5.0 (Macintosh; Intel Mac OS X 10_15_7) AppleWebKit/537.36 (KHTML, like Gecko) Chrome/91.0.4472.114 Safari/537.36" etag="lM_0vSCOp7KFFmHGIhzs" version="14.7.8" type="github">
  <diagram id="2yXUfH2hBGuVDx-Ssc9R" name="Page-1">
    <mxGraphModel dx="2378" dy="967" grid="1" gridSize="10" guides="1" tooltips="1" connect="1" arrows="1" fold="1" page="1" pageScale="1" pageWidth="827" pageHeight="1169" math="0" shadow="0">
      <root>
        <mxCell id="0" />
        <mxCell id="1" parent="0" />
        <mxCell id="6dO00wpbnuDbj8NP9QLM-44" value="" style="rounded=0;whiteSpace=wrap;html=1;fillColor=#CCE5FF;" parent="1" vertex="1">
          <mxGeometry x="1121" y="10" width="1219" height="730" as="geometry" />
        </mxCell>
        <mxCell id="6dO00wpbnuDbj8NP9QLM-5" value="" style="edgeStyle=orthogonalEdgeStyle;rounded=0;orthogonalLoop=1;jettySize=auto;html=1;" parent="1" source="6dO00wpbnuDbj8NP9QLM-1" target="6dO00wpbnuDbj8NP9QLM-2" edge="1">
          <mxGeometry relative="1" as="geometry" />
        </mxCell>
        <mxCell id="6dO00wpbnuDbj8NP9QLM-1" value="Login&lt;br&gt;Windows" style="rounded=0;whiteSpace=wrap;html=1;" parent="1" vertex="1">
          <mxGeometry x="-130" y="60" width="120" height="60" as="geometry" />
        </mxCell>
        <mxCell id="6dO00wpbnuDbj8NP9QLM-4" value="" style="edgeStyle=orthogonalEdgeStyle;rounded=0;orthogonalLoop=1;jettySize=auto;html=1;" parent="1" source="6dO00wpbnuDbj8NP9QLM-2" target="6dO00wpbnuDbj8NP9QLM-3" edge="1">
          <mxGeometry relative="1" as="geometry" />
        </mxCell>
        <mxCell id="6dO00wpbnuDbj8NP9QLM-2" value="Abre o Visual&lt;br&gt;Studio Code" style="rounded=0;whiteSpace=wrap;html=1;" parent="1" vertex="1">
          <mxGeometry x="40" y="60" width="120" height="60" as="geometry" />
        </mxCell>
        <mxCell id="6dO00wpbnuDbj8NP9QLM-3" value="Abre o Terminal no VScode" style="rounded=0;whiteSpace=wrap;html=1;" parent="1" vertex="1">
          <mxGeometry x="40" y="160" width="120" height="60" as="geometry" />
        </mxCell>
        <mxCell id="6dO00wpbnuDbj8NP9QLM-6" value="Cria um Container" style="rounded=1;whiteSpace=wrap;html=1;" parent="1" vertex="1">
          <mxGeometry x="230" y="160" width="120" height="60" as="geometry" />
        </mxCell>
        <mxCell id="6dO00wpbnuDbj8NP9QLM-7" value="Atacha na&amp;nbsp;&lt;br&gt;Home" style="shape=parallelogram;perimeter=parallelogramPerimeter;whiteSpace=wrap;html=1;fixedSize=1;" parent="1" vertex="1">
          <mxGeometry x="390" y="160" width="120" height="60" as="geometry" />
        </mxCell>
        <mxCell id="6dO00wpbnuDbj8NP9QLM-9" value="O que vai ter na Home?" style="swimlane;" parent="1" vertex="1">
          <mxGeometry x="600" y="120" width="200" height="200" as="geometry" />
        </mxCell>
        <mxCell id="6dO00wpbnuDbj8NP9QLM-11" value="Espaço para Repositório&#xa;" style="text;strokeColor=none;fillColor=none;align=left;verticalAlign=top;spacingLeft=4;spacingRight=4;overflow=hidden;rotatable=0;points=[[0,0.5],[1,0.5]];portConstraint=eastwest;" parent="6dO00wpbnuDbj8NP9QLM-9" vertex="1">
          <mxGeometry y="30" width="200" height="26" as="geometry" />
        </mxCell>
        <mxCell id="6dO00wpbnuDbj8NP9QLM-12" value="Demos" style="text;strokeColor=none;fillColor=none;align=left;verticalAlign=top;spacingLeft=4;spacingRight=4;overflow=hidden;rotatable=0;points=[[0,0.5],[1,0.5]];portConstraint=eastwest;" parent="6dO00wpbnuDbj8NP9QLM-9" vertex="1">
          <mxGeometry y="56" width="200" height="26" as="geometry" />
        </mxCell>
        <mxCell id="6dO00wpbnuDbj8NP9QLM-13" value="Demos" style="text;strokeColor=none;fillColor=none;align=left;verticalAlign=top;spacingLeft=4;spacingRight=4;overflow=hidden;rotatable=0;points=[[0,0.5],[1,0.5]];portConstraint=eastwest;" parent="6dO00wpbnuDbj8NP9QLM-9" vertex="1">
          <mxGeometry y="82" width="200" height="26" as="geometry" />
        </mxCell>
        <mxCell id="6dO00wpbnuDbj8NP9QLM-16" value="" style="edgeStyle=orthogonalEdgeStyle;rounded=0;orthogonalLoop=1;jettySize=auto;html=1;" parent="1" source="6dO00wpbnuDbj8NP9QLM-14" target="6dO00wpbnuDbj8NP9QLM-15" edge="1">
          <mxGeometry relative="1" as="geometry" />
        </mxCell>
        <mxCell id="6dO00wpbnuDbj8NP9QLM-14" value="Abre meu Windows" style="rounded=1;whiteSpace=wrap;html=1;" parent="1" vertex="1">
          <mxGeometry x="-116" y="500" width="120" height="60" as="geometry" />
        </mxCell>
        <mxCell id="6dO00wpbnuDbj8NP9QLM-18" value="" style="edgeStyle=orthogonalEdgeStyle;rounded=0;orthogonalLoop=1;jettySize=auto;html=1;" parent="1" source="6dO00wpbnuDbj8NP9QLM-15" target="6dO00wpbnuDbj8NP9QLM-17" edge="1">
          <mxGeometry relative="1" as="geometry" />
        </mxCell>
        <mxCell id="6dO00wpbnuDbj8NP9QLM-15" value="Conecta na VPN" style="whiteSpace=wrap;html=1;rounded=1;" parent="1" vertex="1">
          <mxGeometry x="84" y="500" width="120" height="60" as="geometry" />
        </mxCell>
        <mxCell id="6dO00wpbnuDbj8NP9QLM-20" value="" style="edgeStyle=orthogonalEdgeStyle;rounded=0;orthogonalLoop=1;jettySize=auto;html=1;" parent="1" source="6dO00wpbnuDbj8NP9QLM-17" target="6dO00wpbnuDbj8NP9QLM-19" edge="1">
          <mxGeometry relative="1" as="geometry" />
        </mxCell>
        <mxCell id="6dO00wpbnuDbj8NP9QLM-17" value="Abre o Visual Studio Code" style="whiteSpace=wrap;html=1;rounded=1;" parent="1" vertex="1">
          <mxGeometry x="284" y="500" width="120" height="60" as="geometry" />
        </mxCell>
        <mxCell id="6dO00wpbnuDbj8NP9QLM-19" value="SSH Remoto" style="whiteSpace=wrap;html=1;rounded=1;" parent="1" vertex="1">
          <mxGeometry x="484" y="500" width="120" height="60" as="geometry" />
        </mxCell>
        <mxCell id="6dO00wpbnuDbj8NP9QLM-22" value="" style="rounded=1;whiteSpace=wrap;html=1;" parent="1" vertex="1">
          <mxGeometry x="1170" y="40" width="350" height="360" as="geometry" />
        </mxCell>
        <mxCell id="6dO00wpbnuDbj8NP9QLM-23" value="DEV" style="text;html=1;strokeColor=none;fillColor=none;align=center;verticalAlign=middle;whiteSpace=wrap;rounded=0;" parent="1" vertex="1">
          <mxGeometry x="1310" y="20" width="40" height="20" as="geometry" />
        </mxCell>
        <mxCell id="6dO00wpbnuDbj8NP9QLM-25" value="" style="rounded=1;whiteSpace=wrap;html=1;" parent="1" vertex="1">
          <mxGeometry x="1570" y="40" width="350" height="360" as="geometry" />
        </mxCell>
        <mxCell id="6dO00wpbnuDbj8NP9QLM-26" value="QA" style="text;html=1;strokeColor=none;fillColor=none;align=center;verticalAlign=middle;whiteSpace=wrap;rounded=0;" parent="1" vertex="1">
          <mxGeometry x="1710" y="20" width="40" height="20" as="geometry" />
        </mxCell>
        <mxCell id="6dO00wpbnuDbj8NP9QLM-28" value="" style="rounded=1;whiteSpace=wrap;html=1;" parent="1" vertex="1">
          <mxGeometry x="1960" y="40" width="350" height="360" as="geometry" />
        </mxCell>
        <mxCell id="6dO00wpbnuDbj8NP9QLM-29" value="Prod" style="text;html=1;strokeColor=none;fillColor=none;align=center;verticalAlign=middle;whiteSpace=wrap;rounded=0;" parent="1" vertex="1">
          <mxGeometry x="2115" y="20" width="40" height="20" as="geometry" />
        </mxCell>
        <mxCell id="6dO00wpbnuDbj8NP9QLM-31" value="" style="rounded=1;whiteSpace=wrap;html=1;" parent="1" vertex="1">
          <mxGeometry x="1160" y="440" width="1160" height="190" as="geometry" />
        </mxCell>
        <mxCell id="6dO00wpbnuDbj8NP9QLM-32" value="Jenkins" style="shape=process;whiteSpace=wrap;html=1;backgroundOutline=1;fillColor=#E6FFCC;" parent="1" vertex="1">
          <mxGeometry x="1200" y="470" width="120" height="60" as="geometry" />
        </mxCell>
        <mxCell id="6dO00wpbnuDbj8NP9QLM-34" value="Deployment" style="text;html=1;strokeColor=none;fillColor=none;align=center;verticalAlign=middle;whiteSpace=wrap;rounded=0;" parent="1" vertex="1">
          <mxGeometry x="1690" y="600" width="40" height="20" as="geometry" />
        </mxCell>
        <mxCell id="6dO00wpbnuDbj8NP9QLM-41" value="Nó" style="whiteSpace=wrap;html=1;aspect=fixed;fillColor=#CCE5FF;" parent="1" vertex="1">
          <mxGeometry x="1121" y="760" width="160" height="160" as="geometry" />
        </mxCell>
        <mxCell id="6dO00wpbnuDbj8NP9QLM-43" value="Kubernetes&#xa;Engine" style="html=1;fillColor=#5184F3;strokeColor=none;verticalAlign=top;labelPosition=center;verticalLabelPosition=bottom;align=center;spacingTop=-6;fontSize=11;fontStyle=1;fontColor=#999999;shape=mxgraph.gcp2.hexIcon;prIcon=container_engine" parent="1" vertex="1">
          <mxGeometry x="1140" y="640" width="66" height="58.5" as="geometry" />
        </mxCell>
        <mxCell id="6dO00wpbnuDbj8NP9QLM-45" value="Nó" style="whiteSpace=wrap;html=1;aspect=fixed;fillColor=#CCE5FF;" parent="1" vertex="1">
          <mxGeometry x="1140" y="780" width="160" height="160" as="geometry" />
        </mxCell>
        <mxCell id="6dO00wpbnuDbj8NP9QLM-46" value="Nó" style="whiteSpace=wrap;html=1;aspect=fixed;fillColor=#CCE5FF;" parent="1" vertex="1">
          <mxGeometry x="1160" y="800" width="160" height="160" as="geometry" />
        </mxCell>
        <mxCell id="6dO00wpbnuDbj8NP9QLM-47" value="" style="outlineConnect=0;fontColor=#232F3E;gradientColor=none;fillColor=#277116;strokeColor=none;dashed=0;verticalLabelPosition=bottom;verticalAlign=top;align=center;html=1;fontSize=12;fontStyle=0;aspect=fixed;pointerEvents=1;shape=mxgraph.aws4.bucket_with_objects;" parent="1" vertex="1">
          <mxGeometry x="1006.3100000000001" y="270" width="67.31" height="70" as="geometry" />
        </mxCell>
        <mxCell id="6dO00wpbnuDbj8NP9QLM-48" value="" style="outlineConnect=0;fontColor=#232F3E;gradientColor=none;fillColor=#277116;strokeColor=none;dashed=0;verticalLabelPosition=bottom;verticalAlign=top;align=center;html=1;fontSize=12;fontStyle=0;aspect=fixed;pointerEvents=1;shape=mxgraph.aws4.bucket;" parent="1" vertex="1">
          <mxGeometry x="1006.31" y="170" width="65.38" height="68" as="geometry" />
        </mxCell>
        <mxCell id="6dO00wpbnuDbj8NP9QLM-49" value="" style="shape=image;html=1;verticalAlign=top;verticalLabelPosition=bottom;labelBackgroundColor=#ffffff;imageAspect=0;aspect=fixed;image=https://cdn2.iconfinder.com/data/icons/designer-skills/128/bitbucket-repository-svn-manage-files-contribute-branch-128.png;fillColor=#CCE5FF;" parent="1" vertex="1">
          <mxGeometry x="1000" y="362" width="78" height="78" as="geometry" />
        </mxCell>
        <mxCell id="LhIqq90Hj7kXn5sjoa8O-1" value="Windows Server" style="rounded=0;whiteSpace=wrap;html=1;fillColor=none;" vertex="1" parent="1">
          <mxGeometry x="-270" y="698.5" width="120" height="60" as="geometry" />
        </mxCell>
        <mxCell id="LhIqq90Hj7kXn5sjoa8O-2" value="Jenkins&lt;br&gt;Red Hat&lt;br&gt;Fedora" style="rounded=0;whiteSpace=wrap;html=1;fillColor=none;" vertex="1" parent="1">
          <mxGeometry x="-270" y="780" width="120" height="60" as="geometry" />
        </mxCell>
      </root>
    </mxGraphModel>
  </diagram>
</mxfile>
